<svg display="none" xmlns="http://www.w3.org/2000/svg">

<symbol viewBox="0 0 35 35" id="beans">
<path d="M0.0541455 26.9849C0.600445 31.5459 6.09707 34.985 12.8399 34.985C18.9019 34.985 24.0514 32.1874 25.3643 28.1815L25.3655 28.1795C25.5709 27.5611 25.6769 26.9145 25.6798 26.263C25.6767 26.0667 25.663 25.8709 25.6388 25.6763L25.6319 25.6141C25.3931 23.8878 24.5379 22.3061 23.2236 21.1614C24.72 21.82 26.3324 22.1736 27.967 22.2024C29.3241 22.2278 30.6635 21.8915 31.8475 21.2284L31.8481 21.2275C32.3026 20.9693 32.7216 20.653 33.094 20.2862C33.3742 20.001 33.6244 19.6881 33.8415 19.3524L33.8421 19.3515C36.3037 15.6474 34.7286 9.42236 30.1779 4.87185C25.9639 0.657907 20.1703 -1.05623 16.4007 0.796691C15.7945 1.08993 15.2408 1.48092 14.7618 1.95398C14.5871 2.13295 14.4241 2.32274 14.2733 2.52251C11.4692 6.13344 12.9653 12.6554 17.6799 17.3701C18.1459 17.8346 18.636 18.2743 19.1478 18.6875C17.1336 17.9212 14.9952 17.5325 12.8399 17.541C6.81977 17.541 1.54087 20.4327 0.287826 24.4167C0.0986018 25.0137 0.00142488 25.6364 0 26.263C0.00341972 26.5044 0.0216583 26.7455 0.0541455 26.9849ZM12.8399 33.8178C7.1626 33.8178 2.31657 31.1222 1.35193 27.5608C1.37501 27.5631 1.39866 27.5657 1.42118 27.5679C1.62978 27.5916 1.82841 27.6175 2.01393 27.6472C2.041 27.6514 2.06608 27.6563 2.09287 27.6608C2.26613 27.6896 2.43142 27.7207 2.59072 27.7537C2.61722 27.7592 2.64487 27.7643 2.67137 27.77C2.84178 27.8065 3.00622 27.8447 3.1678 27.8843C3.20285 27.8928 3.23762 27.9017 3.2721 27.9102C3.4277 27.9492 3.58158 27.9886 3.7369 28.029C5.24157 28.4559 6.80096 28.6585 8.36463 28.6301C9.92658 28.6588 11.4843 28.4556 12.9867 28.0276C14.3927 27.6238 15.8515 27.4334 17.314 27.4628C18.7771 27.4334 20.2365 27.6238 21.6431 28.0273C21.7893 28.0652 21.9375 28.1034 22.0879 28.1413C22.1227 28.1501 22.1575 28.1587 22.1925 28.1675C22.3521 28.2071 22.516 28.2459 22.6864 28.2832C22.7072 28.2878 22.7294 28.2921 22.7505 28.2966C22.9081 28.3303 23.0725 28.3625 23.2441 28.393C23.2746 28.3984 23.3037 28.4041 23.3344 28.4092C23.5205 28.4411 23.7172 28.4699 23.9249 28.4961C23.9434 28.4987 23.9588 28.5018 23.9776 28.5041C22.4692 31.6217 17.9484 33.8178 12.8399 33.8178ZM29.3526 5.69743C33.1761 9.52124 34.7768 14.7531 33.2465 18.0329C33.2308 18.0147 33.2149 17.9964 33.1997 17.9782C33.045 17.7961 32.9017 17.6203 32.774 17.4533C32.7626 17.4385 32.7529 17.4245 32.7418 17.41C32.6201 17.2492 32.509 17.0942 32.4049 16.9432C32.3881 16.9187 32.3705 16.8936 32.3539 16.8694C32.2479 16.7129 32.1488 16.5599 32.0533 16.4083C32.035 16.3792 32.0171 16.3504 31.9989 16.3214C31.9068 16.1737 31.8168 16.0267 31.7264 15.8782C30.9447 14.5246 29.967 13.2943 28.8254 12.2271C27.7248 11.1194 26.4655 10.1812 25.0893 9.44373C23.7995 8.75494 22.6206 7.87693 21.5915 6.83848C20.522 5.84163 19.6078 4.69004 18.8794 3.42246C18.8053 3.30021 18.7298 3.17653 18.6528 3.05199L18.5939 2.9571C18.5112 2.8243 18.426 2.68979 18.3348 2.55158C18.3248 2.53619 18.3137 2.52023 18.3035 2.50484C18.2211 2.38059 18.1333 2.25321 18.0401 2.1224C18.0185 2.09219 17.9977 2.06227 17.9755 2.03149C17.8714 1.88787 17.7603 1.73996 17.6395 1.58665C17.6315 1.5761 17.6249 1.5667 17.6167 1.55644C20.9517 0.434486 25.7425 2.08706 29.3526 5.69743ZM15.5871 2.77927C15.8675 2.50142 16.1812 2.25919 16.5209 2.05857C16.5309 2.07025 16.5392 2.08137 16.5489 2.09305C16.6777 2.24979 16.7948 2.39968 16.9039 2.54502C16.9216 2.56867 16.9407 2.59318 16.9581 2.61655C17.0672 2.76474 17.1675 2.90808 17.2624 3.04829C17.2813 3.07622 17.3001 3.10386 17.3183 3.1315C17.4109 3.27057 17.4995 3.40764 17.5842 3.54329C17.5996 3.5678 17.6147 3.59231 17.6298 3.61682C17.7147 3.75389 17.7979 3.89011 17.8817 4.02832C18.662 5.38054 19.6383 6.60992 20.7788 7.67631C21.8793 8.78372 23.1387 9.72187 24.5148 10.4597C25.8046 11.1482 26.9836 12.0262 28.0126 13.0649C29.0836 14.0629 29.9992 15.2156 30.7293 16.4846C30.7894 16.5832 30.8498 16.6824 30.9111 16.7824C30.9319 16.8161 30.9536 16.8506 30.9747 16.8845C31.0177 16.9537 31.0607 17.023 31.1052 17.0931C31.1314 17.1344 31.159 17.1763 31.1858 17.2179C31.2277 17.2831 31.2702 17.3484 31.3146 17.4151C31.3443 17.4595 31.3753 17.5051 31.4064 17.5505C31.4506 17.6154 31.4962 17.6813 31.5432 17.7479C31.5774 17.7961 31.6127 17.8451 31.6483 17.8944C31.6968 17.9608 31.7467 18.0284 31.7985 18.0968C31.8376 18.1483 31.8775 18.2008 31.9185 18.2535C31.9724 18.3227 32.0293 18.3937 32.0872 18.4652C32.1314 18.5199 32.1755 18.5747 32.2226 18.6308C32.2835 18.7043 32.3491 18.7801 32.4149 18.8562C32.4657 18.9146 32.515 18.9725 32.5682 19.0323C32.5813 19.0472 32.5925 19.0608 32.6059 19.0756C32.5016 19.2107 32.389 19.3395 32.2687 19.4609C32.0801 19.6479 31.8749 19.8177 31.6557 19.9685L31.6355 19.9462C31.5982 19.9038 31.5648 19.8636 31.5292 19.8223C31.4617 19.7439 31.3944 19.6661 31.3323 19.5909C31.2938 19.5441 31.2579 19.4991 31.2212 19.4535C31.1673 19.3863 31.114 19.3196 31.0639 19.2546C31.0279 19.2082 30.9937 19.1629 30.9595 19.1173C30.9131 19.0554 30.8678 18.9941 30.8242 18.9337C30.792 18.8896 30.7606 18.8457 30.7301 18.8021C30.6874 18.7414 30.6458 18.6812 30.6056 18.6217C30.578 18.5809 30.55 18.5402 30.5233 18.4997C30.4825 18.4379 30.4426 18.3766 30.4033 18.3156C30.3793 18.2786 30.3551 18.2412 30.3317 18.2042C30.2896 18.1378 30.2485 18.0717 30.2078 18.0058C30.1884 17.9748 30.1687 17.9434 30.1496 17.9121C30.0918 17.818 30.0342 17.724 29.977 17.6297C29.1944 16.276 28.2164 15.0455 27.0745 13.978C25.9739 12.8703 24.7146 11.9321 23.3384 11.1946C22.0486 10.5061 20.8697 9.62782 19.8406 8.58937C18.7703 7.59167 17.8552 6.43951 17.1257 5.17136C17.0356 5.02346 16.9436 4.87356 16.8495 4.72196C16.8296 4.69004 16.8099 4.65812 16.7897 4.62592C16.6936 4.47317 16.5916 4.317 16.4836 4.15685C16.4611 4.12322 16.438 4.08959 16.4146 4.05568C16.3021 3.89182 16.181 3.72311 16.0482 3.54728C16.0259 3.51822 16.002 3.48801 15.9795 3.45866C15.8356 3.27143 15.6814 3.07878 15.5064 2.87417L15.5019 2.86847C15.5301 2.83769 15.5583 2.80805 15.5871 2.77927ZM18.5052 16.5448C14.4603 12.4995 12.9322 7.09695 14.7926 3.84109C14.8065 3.85819 14.8213 3.87558 14.835 3.89239C14.9604 4.04685 15.0775 4.19617 15.1844 4.34009C15.2046 4.36716 15.2229 4.39338 15.2425 4.42017C15.3389 4.55211 15.4295 4.68092 15.5144 4.80659C15.5295 4.82939 15.5457 4.85219 15.5606 4.8747C15.6543 5.0152 15.7427 5.15313 15.8284 5.2902C15.8473 5.32012 15.8655 5.34976 15.884 5.3794C15.9661 5.51191 16.047 5.64414 16.1282 5.77779C16.9096 7.13029 17.8868 8.36025 19.0279 9.4272C20.1285 10.5346 21.3878 11.4728 22.7639 12.2103C24.0537 12.8991 25.2327 13.7771 26.2617 14.8155C27.3329 15.8141 28.2491 16.9671 28.9798 18.2361C29.0696 18.3837 29.1613 18.5328 29.2551 18.6838C29.277 18.7191 29.2987 18.7542 29.3212 18.7895C29.419 18.9446 29.5218 19.103 29.6321 19.2657C29.6544 19.2985 29.678 19.3321 29.7008 19.3655C29.8151 19.531 29.9362 19.7009 30.0716 19.879L30.0889 19.9029C30.2263 20.0828 30.3819 20.2731 30.5478 20.4695C30.5691 20.4945 30.5848 20.5168 30.6067 20.5424C27.2939 21.9134 22.2504 20.2891 18.5052 16.5448ZM12.8399 18.7083C18.5676 18.7083 23.4233 21.4333 24.3433 25.0317C24.3205 25.0291 24.2971 25.0268 24.2749 25.0245C24.0628 25.0009 23.8611 24.9747 23.673 24.9447C23.6479 24.9407 23.6245 24.9362 23.5997 24.9322C23.4268 24.9037 23.2618 24.8726 23.103 24.8399C23.0714 24.8333 23.0386 24.8273 23.0076 24.8205C22.8403 24.7849 22.6787 24.7472 22.52 24.7085C22.4784 24.6982 22.4365 24.688 22.3952 24.6774C22.2438 24.6395 22.0936 24.6013 21.9423 24.562C20.4377 24.1351 18.878 23.9325 17.314 23.961C15.7521 23.9322 14.1944 24.1351 12.692 24.5634C11.2859 24.967 9.82713 25.1573 8.36463 25.1283C6.90127 25.1573 5.44191 24.967 4.03498 24.5637C3.8905 24.5261 3.7443 24.4885 3.59612 24.4512C3.55565 24.4409 3.51518 24.4309 3.47415 24.4207C3.31627 24.3816 3.1544 24.3434 2.9857 24.3067C2.95919 24.3007 2.93127 24.2953 2.90419 24.2896C2.74831 24.2565 2.58559 24.2249 2.41603 24.195C2.38468 24.1895 2.35476 24.1836 2.32284 24.1781C2.13561 24.1465 1.93698 24.118 1.72838 24.0918C1.70729 24.0892 1.68962 24.0858 1.66825 24.0833C3.145 20.9303 7.68154 18.7083 12.8399 18.7083ZM1.28211 25.2149L1.30405 25.2175C1.52975 25.2405 1.73807 25.2685 1.9367 25.2987C1.96491 25.3032 1.99483 25.3069 2.02276 25.3115C2.21427 25.3423 2.39437 25.3759 2.56849 25.4118C2.60354 25.4189 2.63888 25.4261 2.67336 25.4338C2.8415 25.4697 3.00422 25.507 3.16352 25.546C3.20028 25.5552 3.23648 25.5643 3.27295 25.5734C3.42941 25.6127 3.58472 25.6526 3.74089 25.6934C5.24385 26.1211 6.8021 26.324 8.36463 26.2955C9.92658 26.3243 11.4843 26.1211 12.9867 25.6931C14.3927 25.2893 15.8515 25.0989 17.314 25.1283C18.7791 25.0992 20.2402 25.2893 21.6491 25.6919C21.7525 25.7187 21.8565 25.7455 21.9614 25.7723C22.0013 25.7826 22.0421 25.7925 22.0823 25.8025C22.1541 25.8208 22.2262 25.8387 22.2997 25.8564C22.3424 25.8666 22.3866 25.8769 22.4302 25.8872C22.5029 25.9043 22.5764 25.9211 22.6513 25.9376C22.6978 25.9479 22.7451 25.9578 22.7927 25.9678C22.8674 25.9838 22.9437 25.9991 23.0215 26.0143C23.0717 26.0239 23.1224 26.0336 23.1737 26.043C23.2541 26.0576 23.337 26.0718 23.4208 26.0855C23.4732 26.094 23.5254 26.1026 23.5792 26.1109C23.6699 26.1248 23.7645 26.1374 23.8602 26.1502C23.9118 26.157 23.9622 26.1642 24.0158 26.1704C24.1275 26.1838 24.2447 26.1958 24.3638 26.2075C24.4068 26.2115 24.447 26.2163 24.4912 26.2203L24.5122 26.2226C24.5125 26.236 24.5125 26.2496 24.5125 26.263C24.5114 26.6375 24.4669 27.0105 24.38 27.3747L24.3564 27.3719C24.1346 27.3488 23.93 27.3212 23.7345 27.2912C23.7043 27.2864 23.6727 27.2824 23.6431 27.2776C23.4547 27.2471 23.2772 27.2137 23.1059 27.1784C23.0688 27.171 23.0321 27.1633 22.9956 27.1556C22.8303 27.12 22.6696 27.0829 22.5126 27.0444C22.4747 27.035 22.437 27.0253 22.3994 27.0159C22.245 26.9772 22.0919 26.9379 21.9375 26.8977C20.4345 26.4696 18.8766 26.2667 17.314 26.2955C15.7521 26.2667 14.1944 26.4696 12.692 26.898C11.2859 27.3015 9.82713 27.4919 8.36463 27.4628C6.89985 27.4916 5.43877 27.3015 4.03014 26.8991C3.92441 26.8717 3.81811 26.8441 3.71096 26.8167C3.67933 26.8088 3.64656 26.8008 3.61436 26.7925C3.53713 26.7731 3.45933 26.7538 3.37982 26.7344C3.33593 26.7238 3.29062 26.7136 3.24588 26.703C3.17578 26.6865 3.1051 26.6703 3.033 26.6543C2.98342 26.6432 2.93241 26.6327 2.8814 26.6218C2.81101 26.607 2.73919 26.5925 2.66624 26.5782C2.61152 26.5674 2.55624 26.5571 2.49981 26.5469C2.42629 26.5335 2.35049 26.5207 2.27383 26.5078C2.21455 26.4981 2.15528 26.4882 2.09372 26.479C2.01478 26.4668 1.93214 26.4557 1.84921 26.4449C1.78538 26.4363 1.7224 26.4275 1.65628 26.4195C1.56481 26.4087 1.46848 26.399 1.37216 26.3893C1.30947 26.383 1.24934 26.3759 1.18408 26.3702L1.16926 26.3688C1.16812 26.3334 1.16726 26.2981 1.16726 26.263C1.16783 25.9105 1.20631 25.5591 1.28211 25.2149Z" />
<path d="M6.6884 30.1179C6.44845 29.994 6.22047 29.8637 6.00445 29.7272C5.73173 29.5565 5.37238 29.6389 5.20111 29.911C5.02983 30.1832 5.11105 30.5428 5.38263 30.7149C5.62543 30.868 5.88163 31.0145 6.1515 31.1547C6.4379 31.3028 6.79013 31.1909 6.93832 30.9047C7.08651 30.6183 6.9748 30.2661 6.6884 30.1179Z" />
<path d="M20.4496 29.1678C18.6255 30.6394 15.8518 31.4832 12.8399 31.4832C11.3176 31.4955 9.8029 31.2678 8.35152 30.8084C8.04545 30.7092 7.71687 30.8768 7.61713 31.1829C7.51739 31.4889 7.68439 31.8178 7.99017 31.9181C9.55811 32.4157 11.1947 32.6628 12.8399 32.6505C16.1137 32.6505 19.1544 31.7124 21.1826 30.0763C21.4334 29.8737 21.4727 29.5064 21.2704 29.2556C21.068 29.0045 20.7004 28.9652 20.4496 29.1678Z" />
<path d="M16.6894 9.2129C16.625 8.98293 16.5702 8.7558 16.5255 8.53181C16.4622 8.21577 16.1547 8.01087 15.8387 8.07414C15.5227 8.1374 15.3178 8.44489 15.381 8.76093C15.4315 9.01257 15.493 9.2679 15.5654 9.52752C15.6523 9.83786 15.9744 10.0188 16.2847 9.93218C16.595 9.84527 16.7763 9.52324 16.6894 9.2129Z" />
<path d="M28.1331 19.292C28.1531 18.9702 27.9083 18.6932 27.5866 18.6736C25.1865 18.5257 22.3393 17.0774 20.1561 14.8939C19.0569 13.8082 18.1422 12.5503 17.4482 11.1698C17.3046 10.8817 16.9552 10.7643 16.6668 10.9071C16.3784 11.0499 16.2602 11.3992 16.4024 11.6879C17.1527 13.1821 18.1419 14.5437 19.3308 15.7192C21.7428 18.1315 24.8023 19.6715 27.5147 19.8385C27.527 19.8394 27.5393 19.8397 27.5512 19.8397C27.8593 19.8391 28.1141 19.5994 28.1331 19.292Z" />
</symbol>



<symbol viewBox="0 0 200 30" id="divider">
<path d="M90.3885 26.5504L89.9535 26.797L90.4652 27.6996L90.8523 26.7369L90.3885 26.5504ZM92.7569 17.6151L92.4034 17.2615L92.4034 17.2616L92.7569 17.6151ZM102.583 15.9214L102.965 15.5994L102.951 15.583L102.936 15.5678L102.583 15.9214ZM102.591 15.9304L103.064 16.0929L103.172 15.7784L102.924 15.5571L102.591 15.9304ZM96.42 21.5245L96.2546 21.0527L96.2545 21.0527L96.42 21.5245ZM101.26 19.5906L100.907 19.2371L100.907 19.2372L101.26 19.5906ZM96.7102 22.3503L96.8756 22.8221L96.8758 22.8221L96.7102 22.3503ZM91.0194 27.3931L90.538 27.2581L90.459 27.5398L90.6659 27.7467L91.0194 27.3931ZM91.0629 27.4401L91.4165 27.0865L91.4129 27.083L91.0629 27.4401ZM100.888 25.7464L100.535 25.3929L100.535 25.3929L100.888 25.7464ZM103.214 16.7383L103.644 16.4831L103.142 15.6374L102.755 16.5412L103.214 16.7383ZM92.5846 9.2452L92.6283 8.74711L92.6282 8.7471L92.5846 9.2452ZM100.512 6.69018L100.876 7.03304L101.096 6.79912L100.975 6.50151L100.512 6.69018ZM100.508 6.67805L100.98 6.51409L100.976 6.50155L100.508 6.67805ZM90.8574 4.17405L90.6809 3.70624L90.6809 3.70624L90.8574 4.17405ZM85.0179 11.3398L84.52 11.3853L84.6144 12.4183L85.3637 11.701L85.0179 11.3398ZM94.9169 14.9334L94.7404 14.4655L94.7404 14.4656L94.9169 14.9334ZM100.747 7.6831L101.244 7.62774L101.135 6.65018L100.41 7.31425L100.747 7.6831ZM97.7918 9.47781L97.9683 9.94562L97.9683 9.9456L97.7918 9.47781ZM92.5089 10.1171L92.4653 10.6152L92.4653 10.6152L92.5089 10.1171ZM85.2453 12.3682L84.8622 12.0469L84.673 12.2724L84.7784 12.5473L85.2453 12.3682ZM85.2659 12.4285L84.797 12.6021L84.7981 12.605L85.2659 12.4285ZM108.025 8.73791L107.624 8.4391L107.624 8.43921L108.025 8.73791ZM110.015 0.649692L110.498 0.520066L110.409 0.189048L110.068 0.152537L110.015 0.649692ZM110.003 0.646808L110.115 0.15961L110.107 0.157671L110.099 0.156024L110.003 0.646808ZM102.802 7.54313L102.312 7.44756L102.312 7.44759L102.802 7.54313ZM105.832 16.2767L105.609 16.7242L106.538 17.1867L106.321 16.1722L105.832 16.2767ZM110.984 0.971325L111.197 0.519382L110.308 0.0985887L110.492 1.06489L110.984 0.971325ZM110.958 4.42862L110.467 4.33304L110.467 4.33317L110.958 4.42862ZM108.727 9.26028L109.128 9.55909L109.128 9.55896L108.727 9.26028ZM106.827 16.623L106.352 16.7802L106.443 17.054L106.725 17.1126L106.827 16.623ZM106.889 16.6375L106.781 17.1259L106.794 17.1283L106.889 16.6375ZM114.09 9.74125L113.599 9.64563L113.599 9.6457L114.09 9.74125ZM90.8234 26.3038C89.6256 24.1908 90.3922 20.6872 93.1105 17.9687L92.4034 17.2616C89.5188 20.1464 88.4434 24.1333 89.9535 26.797L90.8234 26.3038ZM93.1105 17.9687C94.6369 16.4425 96.4409 15.513 98.1057 15.2261C99.772 14.9388 101.252 15.2979 102.229 16.275L102.936 15.5678C101.668 14.2994 99.8256 13.9148 97.9358 14.2406C96.0445 14.5666 94.0584 15.6068 92.4034 17.2615L93.1105 17.9687ZM102.2 16.2434C102.208 16.2525 102.229 16.277 102.259 16.3037L102.924 15.5571C102.947 15.5778 102.962 15.5959 102.965 15.5994L102.2 16.2434ZM102.118 15.7679C101.707 16.9642 100.37 19.6096 96.2546 21.0527L96.5854 21.9964C101.05 20.4309 102.576 17.5123 103.064 16.0929L102.118 15.7679ZM96.2545 21.0527C92.1879 22.479 90.5633 24.7754 89.9246 26.3638L90.8523 26.7369C91.3837 25.4155 92.791 23.3272 96.5855 21.9964L96.2545 21.0527ZM100.907 19.2372C99.9345 20.2103 98.5407 21.178 96.5446 21.8785L96.8758 22.8221C99.0114 22.0726 100.534 21.0248 101.614 19.944L100.907 19.2372ZM96.5448 21.8785C92.1918 23.4047 90.9071 25.942 90.538 27.2581L91.5009 27.5281C91.7856 26.5129 92.8435 24.2359 96.8756 22.8221L96.5448 21.8785ZM90.6659 27.7467C90.6613 27.7421 90.6584 27.7386 90.6673 27.7486C90.6705 27.7522 90.6768 27.7594 90.6839 27.7671C90.6913 27.7751 90.7011 27.7856 90.713 27.7972L91.4129 27.083C91.4173 27.0873 91.42 27.0902 91.4203 27.0905C91.4204 27.0907 91.4202 27.0905 91.4195 27.0896C91.4186 27.0887 91.4176 27.0876 91.4158 27.0855C91.4106 27.0796 91.3934 27.06 91.373 27.0396L90.6659 27.7467ZM90.7094 27.7936C91.9778 29.0621 93.8201 29.4467 95.7098 29.121C97.6012 28.7949 99.5872 27.7547 101.242 26.1L100.535 25.3929C99.0086 26.9191 97.2047 27.8485 95.54 28.1355C93.8736 28.4227 92.3936 28.0637 91.4165 27.0865L90.7094 27.7936ZM101.242 26.1C104.155 23.1867 105.224 19.1457 103.644 16.4831L102.784 16.9935C104.034 19.0993 103.282 22.6451 100.535 25.3929L101.242 26.1ZM102.755 16.5412C102.435 17.2871 101.876 18.2684 100.907 19.2371L101.614 19.9441C102.687 18.8711 103.312 17.7777 103.674 16.9354L102.755 16.5412ZM92.541 9.74329C97.2545 10.1563 99.8471 8.12509 100.876 7.03304L100.148 6.34732C99.2809 7.26772 96.9732 9.12786 92.6283 8.74711L92.541 9.74329ZM100.975 6.50151C100.979 6.51111 100.982 6.51897 100.983 6.52397C100.985 6.52894 100.986 6.53264 100.987 6.53353C100.987 6.534 100.987 6.5343 100.987 6.53374C100.987 6.53347 100.986 6.53217 100.986 6.53081C100.985 6.52828 100.983 6.52191 100.98 6.51415L100.036 6.84195C100.033 6.836 100.032 6.83156 100.032 6.83102C100.032 6.83065 100.032 6.83036 100.032 6.83111C100.032 6.83158 100.033 6.83291 100.033 6.83442C100.034 6.83739 100.036 6.84319 100.038 6.85024C100.041 6.85732 100.044 6.86724 100.049 6.87884L100.975 6.50151ZM100.976 6.50155C100.343 4.8233 98.8224 3.71407 96.9662 3.23246C95.1086 2.75044 92.8704 2.88012 90.6809 3.70624L91.034 4.64186C93.0533 3.87992 95.08 3.77614 96.7151 4.20041C98.3518 4.62508 99.5524 5.56187 100.04 6.85455L100.976 6.50155ZM90.6809 3.70624C86.8643 5.14643 84.2414 8.33617 84.52 11.3853L85.5159 11.2943C85.2948 8.87568 87.4372 5.99906 91.034 4.64185L90.6809 3.70624ZM85.3637 11.701C86.3925 10.7161 88.5352 9.3929 92.5411 9.7433L92.6282 8.7471C88.3351 8.37157 85.9087 9.7949 84.6722 10.9786L85.3637 11.701ZM95.0934 15.4012C98.9486 13.947 101.587 10.705 101.244 7.62774L100.25 7.73846C100.521 10.1725 98.3764 13.0941 94.7404 14.4655L95.0934 15.4012ZM100.41 7.31425C99.8107 7.86228 98.8967 8.52634 97.6152 9.01002L97.9683 9.9456C99.3879 9.40981 100.408 8.67081 101.085 8.05194L100.41 7.31425ZM97.6153 9.00999C96.3285 9.49545 94.6595 9.80351 92.5526 9.61899L92.4653 10.6152C94.7199 10.8126 96.5395 10.4847 97.9683 9.94562L97.6153 9.00999ZM92.5526 9.61899C87.9577 9.21611 85.7411 10.999 84.8622 12.0469L85.6284 12.6895C86.3064 11.8811 88.2091 10.242 92.4653 10.6152L92.5526 9.61899ZM84.7784 12.5473C84.7773 12.5442 84.7771 12.5432 84.7804 12.5534C84.7816 12.5571 84.7841 12.5648 84.7865 12.5722C84.7892 12.5801 84.7927 12.5905 84.797 12.6021L85.7348 12.2549C85.7355 12.2568 85.7358 12.2578 85.7314 12.2442C85.7281 12.2343 85.7212 12.2129 85.7121 12.1892L84.7784 12.5473ZM84.7981 12.605C85.4314 14.2836 86.9516 15.3931 88.8078 15.8749C90.6656 16.3571 92.9038 16.2275 95.0934 15.4012L94.7404 14.4656C92.7209 15.2277 90.6942 15.3314 89.0591 14.907C87.4223 14.4822 86.2216 13.5451 85.7337 12.252L84.7981 12.605ZM108.426 9.03671C111.254 5.2425 110.887 1.9691 110.498 0.520066L109.532 0.779317C109.86 2.0005 110.231 4.94163 107.624 8.4391L108.426 9.03671ZM110.068 0.152537C110.089 0.154761 110.106 0.157969 110.118 0.160516C110.129 0.163024 110.138 0.165404 110.142 0.166333C110.143 0.166816 110.145 0.167181 110.144 0.167117C110.144 0.167107 110.144 0.167097 110.144 0.167051C110.144 0.167015 110.144 0.16695 110.144 0.166878C110.143 0.166735 110.142 0.166494 110.141 0.166209C110.138 0.16525 110.128 0.162488 110.115 0.15961L109.891 1.13401C109.88 1.13157 109.872 1.12934 109.871 1.12893C109.87 1.12875 109.869 1.12847 109.87 1.12887C109.871 1.12909 109.874 1.12974 109.876 1.1305C109.882 1.13198 109.892 1.13489 109.906 1.13784C109.92 1.14083 109.939 1.1444 109.962 1.14685L110.068 0.152537ZM110.099 0.156024C108.338 -0.186798 106.595 0.524122 105.21 1.85055C103.824 3.17808 102.759 5.15067 102.312 7.44756L103.293 7.63871C103.706 5.52028 104.682 3.74126 105.902 2.57274C107.123 1.40311 108.551 0.873526 109.907 1.13759L110.099 0.156024ZM102.312 7.44759C101.532 11.4527 102.869 15.3593 105.609 16.7242L106.055 15.8291C103.881 14.7464 102.558 11.4129 103.293 7.63867L102.312 7.44759ZM106.321 16.1722C106.024 14.7794 106.024 12.2613 108.426 9.0366L107.624 8.43921C105.049 11.895 104.986 14.707 105.343 16.3811L106.321 16.1722ZM110.492 1.06489C110.644 1.86253 110.729 2.989 110.467 4.33304L111.449 4.5242C111.739 3.03521 111.646 1.77863 111.475 0.877761L110.492 1.06489ZM110.467 4.33317C110.205 5.68343 109.59 7.26528 108.326 8.9616L109.128 9.55896C110.48 7.74409 111.157 6.0237 111.449 4.52407L110.467 4.33317ZM108.326 8.96148C105.57 12.6597 105.922 15.4819 106.352 16.7802L107.302 16.4658C106.97 15.4643 106.575 12.9848 109.128 9.55908L108.326 8.96148ZM106.725 17.1126C106.727 17.113 106.731 17.1138 106.741 17.1162C106.748 17.118 106.765 17.1221 106.781 17.1258L106.997 16.1492C106.993 16.1485 106.99 16.1476 106.977 16.1444C106.966 16.1418 106.948 16.1375 106.928 16.1334L106.725 17.1126ZM106.794 17.1283C108.554 17.4711 110.297 16.7603 111.682 15.434C113.068 14.1065 114.133 12.1339 114.58 9.8368L113.599 9.6457C113.186 11.7644 112.21 13.5433 110.99 14.7118C109.769 15.8813 108.341 16.4108 106.985 16.1467L106.794 17.1283ZM114.58 9.83688C115.368 5.79255 113.996 1.84369 111.197 0.519382L110.77 1.42327C112.983 2.47061 114.342 5.83118 113.599 9.64563L114.58 9.83688ZM0 15H60V14H0V15ZM140 15H200V14H140V15Z" />
</symbol>

<symbol viewBox="0 0 240 1" id="line">
<path d="M0 0.5H240" />
</symbol>



</svg>
